PathFileType	4	(X/Y/Z)	TVC_12_BWA2_walk_RCNL2025.trc
DataRate	CameraRate	NumFrames	NumMarkers	Units	OrigDataRate	OrigDataStartFrame	OrigNumFrames
100	100	12	27	mm	100	221	440
Frame#	Time	R_Shoulder			L_Shoulder			C7			J_Notch			R_Elbow			L_Elbow			R_Wrist			L_Wrist			R_Asis			L_Asis			R_Psis			L_Psis			Sacral			Thoracic			Sternum			R_Thigh_Lateral			R_Knee_Lateral			R_Shank_Lateral			R_Ankle_Lateral			R_Heel			R_Toe			L_Thigh_Lateral			L_Knee_Lateral			L_Shank_Lateral			L_Ankle_Lateral			L_Heel			L_Toe		
		X1	Y1	Z1	X2	Y2	Z2	X3	Y3	Z3	X4	Y4	Z4	X5	Y5	Z5	X6	Y6	Z6	X7	Y7	Z7	X8	Y8	Z8	X9	Y9	Z9	X10	Y10	Z10	X11	Y11	Z11	X12	Y12	Z12	X13	Y13	Z13	X14	Y14	Z14	X15	Y15	Z15	X16	Y16	Z16	X17	Y17	Z17	X18	Y18	Z18	X19	Y19	Z19	X20	Y20	Z20	X21	Y21	Z21	X22	Y22	Z22	X23	Y23	Z23	X24	Y24	Z24	X25	Y25	Z25	X26	Y26	Z26	X27	Y27	Z27
221	2.20000000	559.207092	1366.433960	-94.578613	504.871765	1342.603638	-508.296906	433.095062	1426.325562	-290.919159	581.900757	1312.246948	-301.890564	436.411011	1058.871216	5.245054	331.460449	1040.116333	-529.662231	451.727081	809.097961	-30.728748	351.548157	807.511414	-454.575775	513.656067	928.136963	-96.430603	490.422272	915.085876	-439.807739	332.574554	963.007874	-193.027771	320.539948	958.041260	-300.878204	326.557251	960.524567	-246.952988	340.748383	1171.371826	-270.346893	664.450989	1120.256958	-307.548431	428.794891	617.903015	-76.513817	380.028473	487.506073	-129.993423	237.501755	313.711304	-105.940018	137.317078	128.052612	-182.049835	106.507202	152.730682	-240.650345	242.995987	43.862114	-205.234818	481.480865	609.281616	-478.539032	542.455811	475.500580	-394.067413	525.557373	278.321014	-424.609741	553.640991	69.361664	-344.409760	516.022949	52.271854	-287.615448	700.926208	43.383141	-336.806641
222	2.21000000	565.574768	1367.725098	-96.219719	511.603241	1343.187012	-509.870361	439.574402	1427.151489	-292.698944	588.383972	1313.047241	-303.398712	442.535553	1060.493896	4.313661	337.791992	1041.031494	-531.639343	457.802597	810.723450	-31.720923	359.197266	808.748322	-455.810532	519.035339	928.841370	-97.759865	496.780670	915.618286	-440.750458	338.656372	963.863281	-194.167297	326.598480	959.164795	-302.102631	332.627426	961.514038	-248.134964	347.068085	1172.286499	-271.899231	670.852844	1120.987061	-308.712738	439.736694	617.716003	-75.725899	392.519836	486.567078	-128.340485	246.575562	315.659760	-104.893394	143.256882	132.088699	-181.467911	113.559631	158.241592	-240.111115	245.032761	44.328312	-204.866104	481.506805	608.722961	-477.999481	545.585693	475.433380	-394.793121	527.044434	278.334534	-425.154755	553.828430	69.446701	-344.277679	516.092285	52.464001	-287.539795	701.129639	43.066486	-336.852570
223	2.22000000	571.829773	1368.779419	-97.784042	518.331909	1343.573975	-511.386566	445.981354	1427.828979	-294.430847	594.772522	1313.669556	-304.830353	448.516693	1061.850586	3.373286	344.128235	1041.746460	-533.646545	463.823410	812.067047	-32.678102	366.855957	809.819183	-457.027328	524.287537	929.323669	-99.072639	503.026398	916.062988	-441.673615	344.603546	964.510437	-195.302994	332.518677	960.133545	-303.320587	338.561111	962.321991	-249.311790	353.266632	1173.074585	-273.437958	677.139954	1121.533081	-309.811829	451.235077	617.267883	-74.992409	405.456207	485.438080	-126.656082	256.251953	317.465485	-103.814262	149.783676	136.147018	-180.947128	121.227661	163.708786	-239.646774	247.499008	45.098953	-204.447113	481.992157	608.307861	-477.546814	548.902893	475.294952	-395.573425	528.658447	278.316620	-425.690582	554.076294	69.562859	-344.138153	516.179504	52.718117	-287.454376	701.337463	42.748314	-336.829132
224	2.23000000	577.976074	1369.598999	-99.268883	525.050049	1343.769775	-512.840454	452.314392	1428.360962	-296.109650	601.062622	1314.114502	-306.182495	454.354248	1062.941406	2.417694	350.483032	1042.255737	-535.667297	469.776199	813.130219	-33.604516	374.516129	810.712982	-458.226669	529.436646	929.599609	-100.354553	509.141235	916.428406	-442.586578	350.408264	964.957031	-196.432846	338.299072	960.950562	-304.527588	344.353668	962.953796	-250.480217	359.341553	1173.739014	-274.951416	683.305664	1121.894409	-310.843597	463.223297	616.610901	-74.332321	418.795410	484.160034	-124.966789	266.543610	319.129669	-102.700157	156.917252	140.221420	-180.462128	129.498749	169.097549	-239.225098	250.533661	46.182278	-203.965042	483.397888	608.143127	-477.379272	552.421814	475.094208	-396.414398	530.415894	278.269592	-426.226471	554.382935	69.709488	-344.005005	516.282288	53.028130	-287.367645	701.544739	42.441208	-336.742310
225	2.24000000	584.018188	1370.191895	-100.671967	531.748779	1343.785645	-514.227234	458.572449	1428.753784	-297.729858	607.252136	1314.387451	-307.452942	460.050201	1063.773560	1.442315	356.867340	1042.560669	-537.684326	475.648605	813.921539	-34.506058	382.169937	811.425323	-459.408951	534.506531	929.690430	-101.590271	515.110229	916.721436	-443.499390	356.064270	965.216492	-197.555817	343.940033	961.622742	-305.719971	350.002151	963.419617	-251.637894	365.292053	1174.285645	-276.428558	689.345215	1122.074951	-311.806335	475.598816	615.809448	-73.755013	432.487976	482.780182	-123.300407	277.449921	320.657166	-101.552635	164.671127	144.298386	-179.986038	138.352203	174.368591	-238.811874	254.279297	47.567638	-203.402328	486.067963	608.281128	-477.652496	556.141541	474.840332	-397.316864	532.321777	278.193726	-426.769806	554.743774	69.882370	-343.890472	516.400452	53.384220	-287.287628	701.748352	42.155006	-336.604248
226	2.25000000	589.960754	1370.571411	-101.991402	538.418213	1343.638062	-515.542542	464.755035	1429.017334	-299.285950	613.340027	1314.497925	-308.640137	465.608368	1064.359741	0.444454	363.288666	1042.668701	-539.680237	481.428864	814.455963	-35.390030	389.809601	811.957855	-460.574509	539.518250	929.620911	-102.764320	520.922424	916.947815	-444.421509	361.567352	965.307129	-198.671478	349.443817	962.160217	-306.894867	355.505585	963.733673	-252.783173	371.119019	1174.723145	-277.859253	695.255615	1122.083374	-312.698883	488.233459	614.933289	-73.260765	446.479553	481.349762	-121.685066	288.957275	322.055176	-100.377274	173.054520	148.354126	-179.491867	147.763733	179.477310	-238.373657	258.868652	49.227516	-202.735245	490.185822	608.716614	-478.450592	560.046692	474.542999	-398.276245	534.370483	278.087860	-427.325348	555.151123	70.074883	-343.804138	516.535950	53.773766	-287.221375	701.946411	41.897564	-336.430847
227	2.26000000	595.808167	1370.755127	-103.225624	545.048157	1343.348145	-516.782471	470.862061	1429.164062	-300.772430	619.326416	1314.458984	-309.743134	471.033844	1064.717896	-0.576631	369.750732	1042.592896	-541.637756	487.106094	814.753815	-36.264812	397.426926	812.318024	-461.723389	544.488220	929.417603	-103.862083	526.571106	917.112549	-445.360687	366.915802	965.250549	-199.779663	354.814392	962.575684	-308.049896	360.865097	963.913116	-253.914780	376.824707	1175.062500	-279.234558	701.036072	1121.932129	-313.520660	500.985260	614.050415	-72.842644	460.713257	479.921539	-120.148346	301.040222	323.331696	-99.183113	182.074097	152.352264	-178.953598	157.709183	184.373428	-237.879364	264.414856	51.117954	-201.937561	495.764618	609.399109	-479.775818	564.108521	474.212646	-399.283264	536.546997	277.950317	-427.895172	555.594849	70.278885	-343.752075	516.691895	54.182877	-287.174225	702.137268	41.675167	-336.239624
228	2.27000000	601.564758	1370.764526	-104.373383	551.628174	1342.939697	-517.943726	476.893860	1429.208618	-302.183990	625.212646	1314.286987	-310.761627	476.332642	1064.870117	-1.619735	376.253510	1042.350830	-543.540649	492.670624	814.840240	-37.139478	405.012756	812.518188	-462.855362	549.426514	929.107788	-104.870811	532.054016	917.220642	-446.322205	372.110657	965.070801	-200.880066	360.057129	962.883850	-309.182953	366.083893	963.977325	-255.031509	382.412781	1175.316162	-280.546936	706.687683	1121.637451	-314.271545	513.710754	613.220154	-72.489449	475.132080	478.547699	-118.716370	313.663483	324.493652	-97.981331	191.735138	156.242798	-178.346954	168.166977	189.001038	-237.301025	271.006165	53.179424	-200.987808	502.667847	610.252563	-481.557312	568.286926	473.860657	-400.324951	538.828552	277.779938	-428.478851	556.062561	70.485382	-343.736481	516.871704	54.598518	-287.148834	702.319336	41.492397	-336.048035
229	2.28000000	607.234314	1370.623413	-105.433701	558.148193	1342.438965	-519.023499	482.851074	1429.167236	-303.515625	631.001160	1314.000732	-311.695801	481.511414	1064.841919	-2.681814	382.793060	1041.964233	-545.373596	498.114517	814.743896	-38.023334	412.556564	812.575043	-463.969894	554.337219	928.718079	-105.780647	537.373291	917.277771	-447.308350	377.155823	964.793091	-201.971848	365.178864	963.100952	-310.291962	371.167343	963.947021	-256.131905	387.888092	1175.497925	-281.790344	712.213745	1121.218262	-314.952148	526.276672	612.488953	-72.188721	489.680573	477.278168	-117.413002	326.784729	325.546112	-96.783524	202.041443	159.963104	-177.649734	179.118713	193.299515	-236.613953	278.704498	55.339855	-199.876205	510.649200	611.197754	-483.673889	572.532837	473.499084	-401.385986	541.186401	277.576752	-429.073608	556.540710	70.685295	-343.755829	517.077271	55.010479	-287.144958	702.490540	41.351826	-335.872223
230	2.29000000	612.820496	1370.357300	-106.405869	564.598755	1341.872803	-520.019409	488.734619	1429.057007	-304.762695	636.695007	1313.620483	-312.546265	486.577087	1064.660645	-3.758152	389.361908	1041.457764	-547.123047	503.432114	814.496277	-38.925355	420.045944	812.508545	-465.066086	559.219177	928.274109	-106.585411	542.534790	917.291077	-448.318054	382.058167	964.442749	-203.053452	370.187378	963.243835	-311.374817	376.122772	963.843292	-257.214134	393.256439	1175.622314	-282.960327	717.619324	1120.695679	-315.563507	538.568115	611.888000	-71.929001	504.306091	476.159180	-116.259209	340.357422	326.492126	-95.600212	212.994324	163.441528	-176.842010	190.548615	197.205154	-235.796722	287.547180	57.519588	-198.608246	519.396912	612.169373	-485.981842	576.790955	473.140411	-402.450317	543.587463	277.342804	-429.674591	557.015076	70.870285	-343.805420	517.307922	55.412483	-287.159668	702.648499	41.253582	-335.725922
231	2.30000000	618.326477	1369.992798	-107.289398	570.971436	1341.268311	-520.929871	494.545776	1428.895630	-305.921082	642.298157	1313.167603	-313.314026	491.536499	1064.354980	-4.842613	395.949310	1040.858154	-548.777588	508.620422	814.130096	-39.853641	427.466339	812.341095	-466.142807	564.067261	927.800110	-107.283066	547.547852	917.269653	-449.347015	386.827271	964.044250	-204.122345	375.091461	963.329834	-312.429108	380.959366	963.687042	-258.275726	398.524445	1175.703979	-284.053955	722.911011	1120.092407	-316.107330	550.494629	611.433960	-71.701515	518.959595	475.232513	-115.272652	354.333557	327.333130	-94.439888	224.591843	166.602249	-175.906693	202.442169	200.653503	-234.831451	297.550659	59.637352	-197.203720	528.569458	613.123291	-488.339264	581.003540	472.796600	-403.502319	545.995911	277.082489	-430.275238	557.472412	71.033577	-343.878387	517.560364	55.802387	-287.188354	702.790771	41.194786	-335.619446
232	2.31000000	623.755127	1369.555908	-108.084015	577.258911	1340.651855	-521.753540	500.285950	1428.700439	-306.987305	647.815063	1312.663696	-314.000397	496.396576	1063.953613	-5.927959	402.541687	1040.193237	-550.327820	513.679321	813.678497	-40.814910	434.800812	812.096405	-467.198471	568.874329	927.318665	-107.875854	552.424744	917.224426	-450.387939	391.475067	963.621033	-205.174973	379.900360	963.376099	-313.452240	385.687714	963.498566	-259.313606	403.699341	1175.757202	-285.069794	728.096924	1119.431641	-316.585693	561.991882	611.131042	-71.500992	533.595703	474.534668	-114.467415	368.664917	328.069946	-93.308945	236.828445	169.370605	-174.830658	214.784882	203.581635	-233.704498	308.714905	61.616550	-195.692764	537.819336	614.033020	-490.622833	585.113892	472.478607	-404.527283	548.374939	276.802399	-430.867767	557.900818	71.170403	-343.966583	517.828613	56.181351	-287.225769	702.915344	41.169537	-335.558167
